<?xml version="1.0" encoding="utf-8"?>
<!-- Generator: Adobe Illustrator 16.0.0, SVG Export Plug-In . SVG Version: 6.00 Build 0)  -->
<!DOCTYPE svg PUBLIC "-//W3C//DTD SVG 1.1//EN" "http://www.w3.org/Graphics/SVG/1.1/DTD/svg11.dtd">
<svg version="1.1" xmlns="http://www.w3.org/2000/svg" xmlns:xlink="http://www.w3.org/1999/xlink" x="0px" y="0px" width="142px"
	 height="142px" viewBox="0 0 142 142" enable-background="new 0 0 142 142" xml:space="preserve">
<g id="Layer_1_copy_2" display="none">
	<path display="inline" fill="#949494" d="M73.934,111.656H52.817l-8.996-22.493H19.579l-2.363,22.493H1.436L6.01,68.202h44.368
		c1.32,0,2.578-0.252,3.773-0.756c1.192-0.521,2.235-1.234,3.125-2.16c0.889-0.94,1.602-2.104,2.134-3.506
		c0.534-1.388,0.801-2.928,0.801-4.626c0-2.805-0.687-4.894-2.058-6.297c-1.373-1.402-3.278-2.088-5.719-2.088H8.068l12.654-22.113
		h32.78c2.642,0,5.349,0.378,8.121,1.15c2.769,0.756,5.284,2.132,7.546,4.122c2.261,1.992,4.102,4.642,5.526,7.936
		c1.424,3.309,2.135,7.502,2.135,12.577c0,3.814-0.394,7.46-1.18,10.938c-0.789,3.464-1.908,6.604-3.356,9.403
		c-1.448,2.781-3.19,5.167-5.222,7.1c-2.032,1.967-4.269,3.309-6.708,4.066c0.711,1.123,1.512,2.493,2.401,4.209
		c0.889,1.681,2.046,4.008,3.469,6.982L73.934,111.656z"/>
	<path display="inline" fill="#949494" d="M141.654,26.656l-12.502,22.113h-31.18l-1.141,11.048h38.418l-11.741,20.709h-28.89
		l-3.278,31.13H75.483l9.071-85H141.654z"/>
</g>
<g id="Layer_1_copy_3">
	<path fill="#FFFFFF" d="M73.934,111.656H52.817l-8.996-22.493H19.579l-2.363,22.493H1.436L6.01,68.202h44.368
		c1.32,0,2.578-0.252,3.773-0.756c1.192-0.521,2.235-1.234,3.125-2.16c0.889-0.94,1.602-2.104,2.134-3.506
		c0.534-1.388,0.801-2.928,0.801-4.626c0-2.805-0.687-4.894-2.058-6.297c-1.373-1.402-3.278-2.088-5.719-2.088H8.068l12.654-22.113
		h32.78c2.642,0,5.349,0.378,8.121,1.15c2.769,0.756,5.284,2.132,7.546,4.122c2.261,1.992,4.102,4.642,5.526,7.936
		c1.424,3.309,2.135,7.502,2.135,12.577c0,3.814-0.394,7.46-1.18,10.938c-0.789,3.464-1.908,6.604-3.356,9.403
		c-1.448,2.781-3.19,5.167-5.222,7.1c-2.032,1.967-4.269,3.309-6.708,4.066c0.711,1.123,1.512,2.493,2.401,4.209
		c0.889,1.681,2.046,4.008,3.469,6.982L73.934,111.656z"/>
	<path fill="#FFFFFF" d="M141.654,26.656l-12.502,22.113h-31.18l-1.141,11.048h38.418l-11.741,20.709h-28.89l-3.278,31.13H75.483
		l9.071-85H141.654z"/>
</g>
<g id="Layer_1" display="none">
	
		<text transform="matrix(1 0 0 1 3.1099 91.0947)" display="inline" fill="#FFFAF6" font-family="'EthnocentricRg-Italic'" font-size="69.2789">RF</text>
</g>
</svg>
