<?xml version="1.0" encoding="UTF-8" standalone="no"?>
<!-- Generator: Adobe Illustrator 19.1.0, SVG Export Plug-In . SVG Version: 6.00 Build 0)  -->

<svg
   xmlns:dc="http://purl.org/dc/elements/1.1/"
   xmlns:cc="http://creativecommons.org/ns#"
   xmlns:rdf="http://www.w3.org/1999/02/22-rdf-syntax-ns#"
   xmlns:svg="http://www.w3.org/2000/svg"
   xmlns="http://www.w3.org/2000/svg"
   xmlns:sodipodi="http://sodipodi.sourceforge.net/DTD/sodipodi-0.dtd"
   xmlns:inkscape="http://www.inkscape.org/namespaces/inkscape"
   version="1.1"
   id="Capa_1"
   x="0px"
   y="0px"
   viewBox="-433 235 92 92"
   style="enable-background:new -433 235 92 92;"
   xml:space="preserve"
   inkscape:version="0.48.5 r10040"
   width="100%"
   height="100%"
   sodipodi:docname="cf_icon_info_green.svg"><metadata
   id="metadata15"><rdf:RDF><cc:Work
       rdf:about=""><dc:format>image/svg+xml</dc:format><dc:type
         rdf:resource="http://purl.org/dc/dcmitype/StillImage" /><dc:title></dc:title></cc:Work></rdf:RDF></metadata><defs
   id="defs13"><filter
     inkscape:collect="always"
     id="filter3764"><feGaussianBlur
       inkscape:collect="always"
       stdDeviation="0.92006565"
       id="feGaussianBlur3766" /></filter></defs><sodipodi:namedview
   pagecolor="#ffffff"
   bordercolor="#666666"
   borderopacity="1"
   objecttolerance="10"
   gridtolerance="10"
   guidetolerance="10"
   inkscape:pageopacity="0"
   inkscape:pageshadow="2"
   inkscape:window-width="2560"
   inkscape:window-height="1378"
   id="namedview11"
   showgrid="false"
   inkscape:zoom="10.26087"
   inkscape:cx="63.991138"
   inkscape:cy="43.97832"
   inkscape:window-x="-8"
   inkscape:window-y="-8"
   inkscape:window-maximized="1"
   inkscape:current-layer="g5" />
<style
   type="text/css"
   id="style3">
	.st0{fill:#59AA29;}
</style>

  
<g
   id="g5">
	<path
   class="st0"
   d="M-387.6,235c-25.4,0.3-45.7,21.2-45.4,46.6c0.3,25.4,21.2,45.7,46.6,45.4c25.4-0.3,45.7-21.2,45.4-46.6   C-341.3,255-362.2,234.7-387.6,235z M-387.8,309l-0.3,0c-3.9-0.1-6.7-3-6.6-6.9c0.1-3.8,2.9-6.5,6.7-6.5l0.2,0c4,0.1,6.7,3,6.6,6.9   C-381.1,306.3-383.9,309-387.8,309z M-371.3,276.3c-0.9,1.3-2.9,2.9-5.5,4.9l-2.8,1.9c-1.5,1.2-2.5,2.3-2.8,3.4   c-0.3,0.9-0.4,1.1-0.4,2.9l0,0.5h-10.7l0-0.9c0.1-3.7,0.2-5.9,1.8-7.7c2.4-2.8,7.8-6.3,8-6.4c0.8-0.6,1.4-1.2,1.9-1.9   c1.1-1.6,1.6-2.8,1.6-4c0-1.7-0.5-3.2-1.5-4.6c-0.9-1.3-2.7-2-5.3-2c-2.6,0-4.3,0.8-5.4,2.5c-1.1,1.7-1.6,3.5-1.6,5.4v0.5h-11.1   l0-0.5c0.3-6.8,2.7-11.6,7.2-14.5c2.8-1.8,6.3-2.7,10.4-2.7c5.3,0,9.9,1.3,13.4,3.9c3.6,2.6,5.4,6.5,5.4,11.6   C-368.6,271.3-369.5,273.9-371.3,276.3z"
   id="path7"
   style="filter:url(#filter3764);fill:#b31b16;fill-opacity:1" />
</g>

    <rect
   class="shadow"
   x="10"
   y="10"
   width="100"
   height="50"
   fill="#c66"
   id="rect9" />


</svg>